<svg width="330" height="330" viewBox="0 0 330 330" fill="none" xmlns="http://www.w3.org/2000/svg">
   <g id="clock_frame">
   <circle id="Ellipse 3" cx="166" cy="165" r="159.5" width="3" stroke="none"/>
   <rect id="Rectangle 4" x="237.598" y="58.1603" width="2" height="2" rx="3" transform="rotate(-150 237.598 45.1603)" fill="#fff"/>
   <rect id="Rectangle 5" x="286.84" y="113" width="2" height="2" rx="3" transform="rotate(-120 286.84 97.5981)" fill="#fff"/>
   <rect id="Rectangle 6" x="304.598" y="177.16" width="2" height="10" rx="3" transform="rotate(-90 304.598 167.16)" fill="#D9D9D9"/>
   <rect id="Rectangle 7" x="283.438" y="252.758" width="2" height="2" rx="3" transform="rotate(-60 283.438 236.758)" fill="#fff"/>
   <rect id="Rectangle 8" x="232" y="302" width="2" height="2" rx="3" transform="rotate(-30 232 286)" fill="#fff"/>
   <rect id="Rectangle 9" x="162.598" y="314.16" width="2" height="10" rx="3" fill="#D9D9D9"/>
   <rect id="Rectangle 10" x="94" y="300" width="2" height="2" rx="3" transform="rotate(30 94 283)" fill="#fff"/>
   <rect id="Rectangle 11" x="30.4377" y="245.758" width="2" height="2" rx="3" transform="rotate(-120 30.4377 245.758)" fill="#fff"/>
   <rect id="Rectangle 12" x="7.59802" y="167.16" width="2" height="10" rx="3" transform="rotate(-90 7.59802 167.16)" fill="#D9D9D9"/>
   <rect id="Rectangle 13" x="42.4379" y="88.7583" width="2" height="2" rx="3" transform="rotate(-60 27.4379 88.7583)" fill="#fff"/>
   <rect id="Rectangle 14" x="84" y="29" width="2" height="2" rx="3" transform="rotate(-30 84 29)" fill="#fff"/>
   <rect id="Rectangle 15" x="162.598" y="6.16028" width="2" height="10" rx="3" fill="#D9D9D9"/>
   <text class="clock_digit" id="12" fill="white" xml:space="preserve" style="white-space: pre" font-family="Rubik" font-size="22" letter-spacing="0em"><tspan x="152" y="55">12</tspan></text>
   <text class="clock_digit" id="3" fill="white" xml:space="preserve" style="white-space: pre" font-family="Rubik" font-size="22" letter-spacing="0em"><tspan x="280" y="173.5">3</tspan></text>
   <text class="clock_digit" id="9" fill="white" xml:space="preserve" style="white-space: pre" font-family="Rubik" font-size="22" letter-spacing="0em"><tspan x="35" y="173.5">9</tspan></text>
   <text class="clock_digit" id="6" fill="white" xml:space="preserve" style="white-space: pre" font-family="Rubik" font-size="22" letter-spacing="0em"><tspan x="156" y="295">6</tspan></text>
   </g>
</svg>